<svg width="17" height="24" viewBox="0 0 17 24" fill="none" xmlns="http://www.w3.org/2000/svg">
<path d="M5.33936 22.736H3.97705V13.7052L1.24512 14.7086V13.4781L5.12695 12.0206H5.33936V22.736ZM15.9961 18.1876C15.9961 19.7745 15.7251 20.9537 15.1831 21.7252C14.6411 22.4967 13.7939 22.8824 12.6416 22.8824C11.5039 22.8824 10.6616 22.5065 10.1147 21.7545C9.56787 20.9977 9.28467 19.8698 9.26514 18.3707V16.5616C9.26514 14.9943 9.53613 13.8297 10.0781 13.068C10.6201 12.3063 11.4697 11.9254 12.627 11.9254C13.7744 11.9254 14.6191 12.2941 15.1611 13.0314C15.7031 13.7638 15.9814 14.8966 15.9961 16.4298V18.1876ZM14.6411 16.3346C14.6411 15.1871 14.48 14.3522 14.1577 13.8297C13.8354 13.3024 13.3252 13.0387 12.627 13.0387C11.9336 13.0387 11.4282 13.2999 11.1108 13.8224C10.7935 14.3448 10.6299 15.1481 10.6201 16.2321V18.4C10.6201 19.5524 10.7861 20.4044 11.1182 20.9562C11.4551 21.5031 11.9629 21.7765 12.6416 21.7765C13.3105 21.7765 13.8062 21.5177 14.1284 21.0001C14.4556 20.4825 14.6265 19.6671 14.6411 18.5538V16.3346Z" fill="#ADADAD"/>
<path d="M16.1056 4.59619C16.4741 4.41193 16.4741 3.88603 16.1056 3.70177L8.89773 0.0978481C8.56528 -0.0683774 8.17412 0.17337 8.17412 0.545061V7.7529C8.17412 8.12459 8.56528 8.36634 8.89773 8.20011L16.1056 4.59619Z" fill="#ADADAD"/>
<path d="M10.9096 4.60706C11.3091 4.4323 11.3091 3.86566 10.9096 3.6909L2.57036 0.0424739C2.24001 -0.102052 1.86995 0.139976 1.86995 0.500552V7.79741C1.86995 8.15798 2.24001 8.40001 2.57036 8.25549L10.9096 4.60706Z" fill="#ADADAD"/>
</svg>
