<svg width="17" height="24" viewBox="0 0 17 24" fill="none" xmlns="http://www.w3.org/2000/svg">
<path d="M5.33936 23H3.97705V13.9692L1.24512 14.9727V13.7422L5.12695 12.2847H5.33936V23ZM15.9961 18.4517C15.9961 20.0386 15.7251 21.2178 15.1831 21.9893C14.6411 22.7607 13.7939 23.1465 12.6416 23.1465C11.5039 23.1465 10.6616 22.7705 10.1147 22.0186C9.56787 21.2617 9.28467 20.1338 9.26514 18.6348V16.8257C9.26514 15.2583 9.53613 14.0938 10.0781 13.332C10.6201 12.5703 11.4697 12.1895 12.627 12.1895C13.7744 12.1895 14.6191 12.5581 15.1611 13.2954C15.7031 14.0278 15.9814 15.1606 15.9961 16.6938V18.4517ZM14.6411 16.5986C14.6411 15.4512 14.48 14.6162 14.1577 14.0938C13.8354 13.5664 13.3252 13.3027 12.627 13.3027C11.9336 13.3027 11.4282 13.564 11.1108 14.0864C10.7935 14.6089 10.6299 15.4121 10.6201 16.4961V18.6641C10.6201 19.8164 10.7861 20.6685 11.1182 21.2202C11.4551 21.7671 11.9629 22.0405 12.6416 22.0405C13.3105 22.0405 13.8062 21.7817 14.1284 21.2642C14.4556 20.7466 14.6265 19.9312 14.6411 18.8179V16.5986Z" fill="#ADADAD"/>
<path d="M0.894436 4.86023C0.525911 4.67597 0.525911 4.15007 0.894435 3.9658L8.10227 0.361886C8.43472 0.195661 8.82588 0.437408 8.82588 0.809099V8.01694C8.82588 8.38863 8.43472 8.63038 8.10227 8.46415L0.894436 4.86023Z" fill="#ADADAD"/>
<path d="M6.09038 4.8711C5.69093 4.69634 5.69093 4.1297 6.09038 3.95494L14.4296 0.306512C14.76 0.161986 15.1301 0.404014 15.1301 0.76459V8.06144C15.1301 8.42202 14.76 8.66405 14.4296 8.51952L6.09038 4.8711Z" fill="#ADADAD"/>
</svg>
